<svg height="496pt" viewBox="0 -24 496 496" width="496pt" xmlns="http://www.w3.org/2000/svg"><path d="m240 168h16v-32h16v-16h-16v-24h-16v24h-16v16h16zm0 0"/><path d="m464 352c-13.335938 0-25.871094-5.191406-35.3125-14.625l-76.488281-76.488281c-.085938-1.628907-.199219-3.253907-.199219-4.886719 0-9.753906 1.558594-19.390625 4.648438-28.65625l5.640624-16.929688c3.789063-11.359374 5.710938-23.199218 5.710938-35.175781 0-1.261719-.144531-2.484375-.191406-3.742187l60.878906-60.878906c9.441406-9.425782 21.976562-14.617188 35.3125-14.617188 17.648438 0 32-14.351562 32-32s-14.351562-32-32-32c0-17.648438-14.351562-32-32-32s-32 14.351562-32 32c0 13.34375-5.191406 25.878906-14.625 35.3125l-40.414062 40.414062c-20.351563-26.527343-52.265626-43.726562-88.199219-43.726562h-17.515625c-35.933594 0-67.855469 17.199219-88.199219 43.726562l-40.414063-40.414062c-9.441406-9.433594-14.632812-21.96875-14.632812-35.3125 0-17.648438-14.351562-32-32-32s-32 14.351562-32 32c-17.648438 0-32 14.351562-32 32s14.351562 32 32 32c13.335938 0 25.871094 5.191406 35.3125 14.625l60.878906 60.878906c-.046875 1.25-.191406 2.480469-.191406 3.742188 0 11.976562 1.921875 23.816406 5.710938 35.179687l5.640624 16.925781c3.089844 9.257813 4.648438 18.894532 4.648438 28.648438 0 1.632812-.113281 3.257812-.191406 4.878906l-76.488282 76.488282c-9.449218 9.441406-21.984374 14.632812-35.320312 14.632812-17.648438 0-32 14.351562-32 32s14.351562 32 32 32c0 17.648438 14.351562 32 32 32s32-14.351562 32-32c0-13.34375 5.191406-25.878906 14.625-35.3125l49.375-49.375v20.6875c0 7.472656 2.632812 14.742188 7.414062 20.488281l27.242188 32.6875c6.105469 7.320313 15.0625 11.511719 24.582031 11.511719h57.515625c9.519532 0 18.484375-4.191406 24.582032-11.511719l27.238281-32.6875c4.792969-5.746093 7.425781-13.015625 7.425781-20.488281v-20.6875l49.375 49.375c9.433594 9.433594 14.625 21.96875 14.625 35.3125 0 17.648438 14.351562 32 32 32s32-14.351562 32-32c17.648438 0 32-14.351562 32-32s-14.351562-32-32-32zm-67.3125-273.375c12.457031-12.449219 19.3125-29.007812 19.3125-46.625 0-8.824219 7.175781-16 16-16s16 7.175781 16 16v16h16c8.824219 0 16 7.175781 16 16s-7.175781 16-16 16c-17.609375 0-34.167969 6.855469-46.625 19.3125l-52.03125 52.03125c-2.34375-10.65625-6.199219-20.734375-11.359375-30.015625zm-157.449219 1.375h17.515625c52.519532 0 95.246094 42.726562 95.246094 95.246094 0 7.601562-.910156 15.136718-2.695312 22.488281-1.753907-4.207031-4.320313-8.070313-7.648438-11.390625-6.671875-6.671875-15.535156-10.34375-24.96875-10.34375h-5.96875c-11.207031 0-22.070312 3.289062-31.398438 9.503906-9.59375 6.398438-15.320312 17.097656-15.320312 28.625 0 14.152344 8.488281 26.679688 21.625 31.933594l19.65625 7.867188c3.429688 1.375 7.046875 2.070312 10.75 2.070312h7.023438c4.464843 0 8.945312-1.054688 12.945312-3.054688.039062-.023437.078125-.050781.128906-.074218-.03125 1.039062-.128906 2.082031-.128906 3.128906 0 11.472656 1.839844 22.816406 5.472656 33.703125l1.878906 5.65625c.433594 1.296875.648438 2.640625.648438 4 0 6.96875-5.671875 12.640625-12.648438 12.640625h-3.351562c-9.039062 0-17.296875 3.128906-24 8.207031v-8.207031h-16v16h-16v-16h-16v16h-16v-16h-16v16h-16v-16h-16v8.207031c-6.703125-5.078125-14.960938-8.207031-24-8.207031h-3.351562c-6.976563 0-12.648438-5.671875-12.648438-12.648438 0-1.359374.214844-2.703124.65625-4.007812l1.863281-5.632812c3.640625-10.894532 5.480469-22.238282 5.480469-33.710938 0-1.046875-.097656-2.089844-.128906-3.128906.039062.023437.082031.058594.128906.074218 4 2 8.480469 3.054688 12.945312 3.054688h7.023438c3.703125 0 7.320312-.695312 10.742188-2.070312l19.664062-7.867188c13.136719-5.246094 21.625-17.78125 21.625-31.933594 0-11.527344-5.726562-22.226562-15.320312-28.625-9.328126-6.214844-20.183594-9.503906-31.398438-9.503906h-5.96875c-9.433594 0-18.296875 3.671875-24.96875 10.335938-3.320312 3.320312-5.894531 7.183593-7.648438 11.390624-1.785156-7.351562-2.695312-14.878906-2.695312-22.480468 0-52.519532 42.726562-95.246094 95.238281-95.246094zm96.761719 131.3125v15.742188c0 4.9375-2.742188 9.371093-7.160156 11.578124-1.785156.894532-3.785156 1.367188-5.785156 1.367188h-7.023438c-1.65625 0-3.269531-.3125-4.808594-.921875l-19.664062-7.871094c-7.023438-2.808593-11.558594-9.511719-11.558594-17.078125 0-6.167968 3.0625-11.890625 8.191406-15.3125 6.695313-4.457031 14.480469-6.816406 22.527344-6.816406h5.96875c5.160156 0 10.007812 2.007812 13.65625 5.664062 3.648438 3.640626 5.65625 8.488282 5.65625 13.648438zm-176 15.742188v-15.742188c0-5.160156 2.007812-10.007812 5.65625-13.65625s8.503906-5.65625 13.65625-5.65625h5.96875c8.046875 0 15.832031 2.359375 22.519531 6.824219 5.136719 3.414062 8.199219 9.144531 8.199219 15.304687 0 7.566406-4.535156 14.269532-11.558594 17.078125l-19.671875 7.863281c-1.523437.609376-3.144531.921876-4.800781.921876h-7.023438c-2 0-4-.472657-5.792968-1.367188-4.410156-2.199219-7.152344-6.632812-7.152344-11.570312zm-81.375-127.742188c-12.457031-12.457031-29.015625-19.3125-46.625-19.3125-8.824219 0-16-7.175781-16-16s7.175781-16 16-16h16v-16c0-8.824219 7.175781-16 16-16s16 7.175781 16 16c0 17.617188 6.855469 34.175781 19.3125 46.625l42.703125 42.703125c-5.167969 9.273437-9.015625 19.359375-11.359375 30.015625zm20.6875 270.0625c-12.457031 12.449219-19.3125 29.007812-19.3125 46.625 0 8.824219-7.175781 16-16 16s-16-7.175781-16-16v-16h-16c-8.824219 0-16-7.175781-16-16s7.175781-16 16-16c17.609375 0 34.167969-6.855469 46.625-19.3125l59.070312-59.070312-.222656.671874c-.976562 2.925782-1.472656 5.976563-1.472656 9.0625 0 9.097657 4.34375 17.121094 10.96875 22.367188zm216.976562-7.136719-27.242187 32.691407c-3.046875 3.65625-7.519531 5.75-12.285156 5.75h-57.515625c-4.765625 0-9.238282-2.09375-12.285156-5.75l-27.242188-32.691407c-2.398438-2.871093-3.71875-6.503906-3.71875-10.238281v-22.527344c9.289062 3.3125 16 12.113282 16 22.527344v8h16v-16h16v16h16v-16h16v16h16v-16h16v16h16v-8c0-10.414062 6.710938-19.214844 16-22.527344v22.527344c0 3.734375-1.320312 7.367188-3.710938 10.238281zm147.710938 37.761719h-16v16c0 8.824219-7.175781 16-16 16s-16-7.175781-16-16c0-17.617188-6.855469-34.175781-19.3125-46.625l-47.65625-47.65625c6.625-5.253906 10.96875-13.269531 10.96875-22.367188 0-3.085937-.496094-6.136718-1.472656-9.054687l-.222656-.679687 59.070312 59.070312c12.457031 12.457031 29.015625 19.3125 46.625 19.3125 8.824219 0 16 7.175781 16 16s-7.175781 16-16 16zm0 0"/><path d="m221.648438 263.03125c-3.585938 3.601562-5.648438 8.578125-5.648438 13.65625 0 10.648438 8.664062 19.3125 19.3125 19.3125 4.648438 0 9.199219-1.71875 12.6875-4.753906 3.496094 3.035156 8.039062 4.753906 12.6875 4.753906 10.648438 0 19.3125-8.664062 19.3125-19.3125 0-5.078125-2.0625-10.054688-5.65625-13.65625l-26.34375-26.34375zm42.351562 13.65625c0 2.703125-3.753906 4.257812-5.65625 2.34375l-10.34375-10.34375-10.351562 10.34375c-1.878907 1.898438-5.648438.359375-5.648438-2.34375 0-.871094.351562-1.726562.96875-2.34375l15.03125-15.03125 15.023438 15.023438c.625.625.976562 1.480468.976562 2.351562zm0 0"/></svg>