<svg height="496pt" viewBox="0 -1 496 495" width="496pt" xmlns="http://www.w3.org/2000/svg" xmlns:xlink="http://www.w3.org/1999/xlink"><linearGradient id="a" gradientUnits="userSpaceOnUse" x1="248" x2="248" y1="493.444" y2=".4984"><stop offset="0" stop-color="#9f2fff"/><stop offset="1" stop-color="#0bb1d3"/></linearGradient><path d="m384 373.445312c-13.230469 0-24 10.765626-24 24 0 13.230469 10.769531 24 24 24s24-10.769531 24-24c0-13.234374-10.769531-24-24-24zm0 32c-4.414062 0-8-3.585937-8-8 0-4.417968 3.585938-8 8-8s8 3.582032 8 8c0 4.414063-3.585938 8-8 8zm-128 8h16v16h-16zm48 0h16v16h-16zm-96 0h16v16h-16zm222.824219-269.976562c-4.921875-8.738281-13.28125-14.816406-22.824219-17.039062v-16.984376h-16v192h-48v38.109376l-12.945312 25.890624h-59.054688v-24h52.945312l-6.632812-13.265624c-4.136719-8.265626-6.3125-17.511719-6.3125-26.734376 0-9.226562 2.175781-18.472656 6.3125-26.738281l6.632812-13.261719h-52.945312v-24h94.945312l-8.289062-12.441406c-9.585938-14.382812-14.65625-31.121094-14.65625-48.398437v-6.3125c0-17.28125 5.070312-34.015625 14.65625-48.410157l8.289062-12.4375h-110.945312v-18.585937l91.503906-36.605469-107.503906-53.753906v108.945312h-75.3125l-4.40625 4.398438c-15.65625 15.664062-24.28125 36.488281-24.28125 58.632812 0 .414063.046875.832032.054688 1.246094-44.679688 17.210938-77.445313 55.105469-87.871094 101.984375l-2.160156 9.738281h9.976562c19.449219 0 38.609375 4.558594 56 12.941407v51.058593h-14.113281l-52.175781-26.089843c-7.726563-3.863281-16.390626-5.910157-25.039063-5.910157h-20.671875v16h20.671875c6.175781 0 12.359375 1.460938 17.878906 4.222657l2.585938 1.289062 5.832031 23.34375c1.238281 4.976563 3.984375 9.351563 7.917969 12.632813l42.960937 35.804687 6.953125 37.027344c4.960938 26.46875 28.109375 45.679687 55.039063 45.679687h223.503906c27.496094 0 50.71875-19.679687 55.242188-46.800781l17.308593-103.886719.105469-41.3125h-48v-16h67.320312c11.40625 0 20.679688-9.273437 20.679688-20.679687 0-3.53125-.910156-7.042969-2.65625-10.144531zm-174.824219-117.082031 52.488281 26.242187-52.488281 21zm136 307.058593v-16h16v16zm-16-16v16h-16v-16zm-120 48h-16v-24h16zm43.910156-40h-96.597656l-2.34375-2.34375c-5.703125-5.707031-8.96875-13.59375-8.96875-21.65625 0-8.066406 3.265625-15.953124 8.96875-21.65625l2.34375-2.34375h96.597656c-2.574218 7.726563-3.910156 15.863282-3.910156 24 0 8.132813 1.335938 16.269532 3.910156 24zm-43.910156-64h-16v-24h16zm-84.6875-136h166.917969c-6.726563 13.933594-10.230469 29.199219-10.230469 44.839844v6.3125c0 15.644532 3.503906 30.910156 10.230469 44.839844h-166.230469l-2.199219-2.9375c5.289063-13.089844 11.582031-25.792969 19.136719-37.871094l9.511719-15.183594h-18.5625c-9.375 0-18.628907 1.183594-27.703125 3.320313.886718-16.34375 7.550781-31.609375 19.128906-43.320313zm-27.265625 62.3125c8.265625-3 16.808594-4.945312 25.496094-5.808593-19.421875 34.335937-30.710938 72.558593-33.070313 111.902343-20.871094-13.910156-45.167968-22.246093-70.199218-24.046874 11.511718-38.023438 40.007812-68.3125 77.773437-82.046876zm-16.046875 119.703126c2.902344 1.949218 5.742188 4.015624 8.488281 6.207031l15.511719 12.441406v-16.664063c0-24.898437 3.9375-49.433593 11.320312-72.90625l.679688.90625h60v24h-27.3125l-7.03125 7.03125c-8.679688 8.679688-13.65625 20.695313-13.65625 32.96875 0 12.269532 4.976562 24.285157 13.65625 32.964844l7.03125 7.035156h27.3125v24h-20.6875l-16-16h-59.3125zm-62.863281 55.175781c-1.3125-1.097657-2.226563-2.542969-2.640625-4.199219l-2.511719-10.058594 28.886719 14.441406 4.351562 23.222657zm357.664062 81.382812c-3.234375 19.367188-19.832031 33.425781-39.464843 33.425781h-223.503907c-12.886719 0-24.457031-6.25-31.832031-16h80v-16h-87.304688c-.046874-.21875-.136718-.417968-.175781-.632812l-2.886719-15.367188h74.367188v-16h-77.359375l-9-48h75.046875l16 16h144.257812l16-32h81.613282zm17.199219-110.574219h-16v-16h16zm35.320312-64h-67.320312v-126.097656c3.65625 1.679688 6.832031 4.34375 8.871094 7.960938l62.511718 111.144531c.410157.710937.617188 1.503906.617188 2.3125 0 2.574219-2.105469 4.679687-4.679688 4.679687zm0 0" fill="url(#a)"/></svg>