<svg height="464pt" viewBox="0 -2 464 464" width="464pt" xmlns="http://www.w3.org/2000/svg"><path d="m461.34375 238.128906-62.519531-111.160156c-4.914063-8.738281-13.28125-14.816406-22.824219-17.039062v-16.984376h-16v192h16v-16h67.320312c11.40625 0 20.679688-9.273437 20.679688-20.679687 0-3.53125-.910156-7.042969-2.65625-10.136719zm0 0"/><path d="m376 300.945312h16v16h-16zm0 0"/><path d="m344 300.945312h16v16h-16zm0 0"/><path d="m376 380.945312c0 4.417969-3.582031 8-8 8s-8-3.582031-8-8c0-4.417968 3.582031-8 8-8s8 3.582032 8 8zm0 0"/><path d="m324.945312 364.945312h-84.945312v-56h43.910156c-2.574218-7.730468-3.910156-15.867187-3.910156-24 0-8.136718 1.335938-16.273437 3.910156-24h-43.910156v-56h82.230469c-6.726563-13.929687-10.230469-29.203124-10.230469-44.839843v-6.3125c0-15.640625 3.503906-30.914063 10.230469-44.839844h-82.230469v-18.585937l91.503906-36.597657-107.503906-53.769531v108.945312h-68.6875c-11.578125 11.710938-18.242188 26.976563-19.136719 43.320313 9.0625-2.136719 18.320313-3.320313 27.703125-3.320313h18.5625l-9.503906 15.183594c-7.554688 12.085938-13.859375 24.792969-19.136719 37.878906l2.199219 2.9375h68v56h-36.6875l-2.34375 2.34375c-5.703125 5.703126-8.96875 13.589844-8.96875 21.65625 0 8.0625 3.265625 15.949219 8.96875 21.65625l2.34375 2.34375h36.6875v56h-43.3125l-16-16h-52.6875v-76.800781c2.871094 1.640625 5.703125 3.375 8.472656 5.214844 2.359375-39.34375 13.648438-77.566406 33.070313-111.902344-8.695313.855469-17.222657 2.808594-25.496094 5.808594-37.765625 13.734375-66.261719 44.015625-77.78125 82.054687 15.757813 1.128907 31.222656 4.863282 45.734375 10.945313v83.742187l-50.289062-25.144531c-7.726563-3.863281-16.390626-5.910156-25.039063-5.910156h-20.671875v16h20.671875c6.175781 0 12.359375 1.460937 17.878906 4.222656l1.671875.832031c1.121094 20.726563 8.953125 40.609376 22.519532 56.441407l29.570312 34.496093h99.6875v16h-79.992188c7.367188 9.75 18.945313 16 31.832032 16h223.503906c19.632812 0 36.230469-14.058593 39.464844-33.425781l15.757812-94.574219h-81.621094zm-148.945312 48h-76.320312l-24.777344-28.90625c-9.222656-10.757812-15.292969-23.75-17.710938-37.550781l35.296875 17.648438 6.152344 32.808593h77.359375zm80 0h-16v-16h16zm48 0h-16v-16h16zm64-56c13.230469 0 24 10.765626 24 24 0 13.230469-10.769531 24-24 24s-24-10.769531-24-24c0-13.234374 10.769531-24 24-24zm0 0"/><path d="m408 300.945312h16v16h-16zm0 0"/></svg>