<?xml version="1.0" encoding="iso-8859-1"?>
<!-- Generator: Adobe Illustrator 22.1.0, SVG Export Plug-In . SVG Version: 6.00 Build 0)  -->
<svg xmlns="http://www.w3.org/2000/svg" xmlns:xlink="http://www.w3.org/1999/xlink" version="1.1" id="Layer_1_1_" x="0px" y="0px" viewBox="0 0 64 64" style="enable-background:new 0 0 64 64;" xml:space="preserve" width="512" height="512">
<g>
	<g>
		<path style="fill:#F0BC5E;" d="M9,4v2.414l1.222,1.222C14.593,12.007,17,17.818,17,24s-2.407,11.993-6.778,16.364L9,41.586V44h51    V4H9z"/>
	</g>
	<g>
		<path d="M7,1C5.346,1,4,2.346,4,4v59h6V4C10,2.346,8.654,1,7,1z M8,61H6V4c0-0.551,0.448-1,1-1s1,0.449,1,1V61z"/>
		<path d="M49,20c0-6.065-4.935-11-11-11s-11,4.935-11,11.01c0,0.721,0.072,1.447,0.214,2.158l0.787,3.938    c0.038,1.43,0.837,2.662,1.999,3.339v1.964c0,1.331,0.661,2.566,1.769,3.305l0.828,0.552c0.363,0.242,0.639,0.604,0.777,1.019    C33.916,37.909,35.431,39,37.143,39h1.715c1.712,0,3.227-1.091,3.769-2.716c0.139-0.414,0.414-0.775,0.777-1.018l0.828-0.552    C45.339,33.976,46,32.74,46,31.409v-1.964c1.162-0.677,1.961-1.91,1.999-3.339l0.673-3.367c0.011-0.011,0.024-0.021,0.035-0.032    l-0.024-0.024l0.103-0.516C48.928,21.457,49,20.73,49,20z M43.172,23h-0.591c-1.113,0-2.097-0.709-2.448-1.764    C40.045,20.971,40,20.696,40,20.419v-1.461c2.261,0.656,4.613,1.012,6.999,1.032c0,0.007,0.001,0.013,0.001,0.02    c0,0.566-0.057,1.134-0.164,1.693C45.802,22.542,44.522,23,43.172,23z M46.761,17.979c-5.187-0.1-10.192-1.891-14.27-5.081    C34.015,11.713,35.924,11,38,11C42.265,11,45.839,13.985,46.761,17.979z M44,31.409c0,0.661-0.328,1.274-0.878,1.641l-0.828,0.552    c-0.731,0.488-1.287,1.216-1.564,2.049C40.46,36.458,39.707,37,38.857,37h-1.715c-0.851,0-1.603-0.542-1.872-1.349    c-0.277-0.833-0.833-1.561-1.564-2.049l-0.828-0.552C32.328,32.684,32,32.07,32,31.409V30h2v1h2v-1h1v1h2v-1h1v1h2v-1h2V31.409z     M46.02,25.804L46,26c0,1.103-0.897,2-2,2h-2v-1h-2v1h-1v-1h-2v1h-1v-1h-2v1h-2c-1.103,0-2-0.897-2-2l-0.825-4.225    C29.059,21.193,29,20.6,29,20c0-2.161,0.767-4.146,2.041-5.699c2.114,1.691,4.458,3.041,6.959,3.993v2.125    c0,0.491,0.079,0.978,0.235,1.448C38.859,23.741,40.605,25,42.581,25h0.591c1.1,0,2.163-0.231,3.14-0.659L46.02,25.804z"/>
		<polygon points="35.293,18.293 33.5,20.086 31.707,18.293 30.293,19.707 32.086,21.5 30.293,23.293 31.707,24.707 33.5,22.914     35.293,24.707 36.707,23.293 34.914,21.5 36.707,19.707   "/>
	</g>
</g>
</svg>
