<svg xmlns="http://www.w3.org/2000/svg" viewBox="0 0 181.25 50">
  <defs>
    <style>
      .cls-1 {
        opacity: 0.7;
      }

      .cls-2 {
        fill: #e2c1a2;
      }
    </style>
  </defs>
  <g id="Group_26" data-name="Group 26" class="cls-1" transform="translate(-158 -712)">
    <g id="instagram" transform="translate(158 712)">
      <path id="Path_3" data-name="Path 3" class="cls-2" d="M25,0A25,25,0,1,0,50,25,25.028,25.028,0,0,0,25,0Zm0,47.14A22.14,22.14,0,1,1,47.14,25,22.165,22.165,0,0,1,25,47.14Z" transform="translate(0 0)"/>
      <path id="Path_4" data-name="Path 4" class="cls-2" d="M102.261,80.326H84.053a3.023,3.023,0,0,0-3.019,3.019v18.433a3.023,3.023,0,0,0,3.019,3.019h18.208a3.023,3.023,0,0,0,3.019-3.019V83.345A3.023,3.023,0,0,0,102.261,80.326Zm.159,21.452a.159.159,0,0,1-.159.159H84.053a.159.159,0,0,1-.159-.159V83.345a.159.159,0,0,1,.159-.159h18.208a.159.159,0,0,1,.159.159Z" transform="translate(-68.157 -67.562)"/>
      <rect id="Rectangle_1" data-name="Rectangle 1" class="cls-2" width="3.276" height="3.005" transform="translate(29.172 17.768)"/>
      <circle id="Ellipse_1" data-name="Ellipse 1" class="cls-2" cx="3.23" cy="3.23" r="3.23" transform="translate(21.77 22.981)"/>
      <path id="Path_5" data-name="Path 5" class="cls-2" d="M123.055,152.706a5.151,5.151,0,0,1-10.3,0l.007-2.3h-2.3v8.543h14.9v-8.543h-2.285Z" transform="translate(-92.904 -126.51)"/>
    </g>
    <g id="facebook-logo-in-circular-button-outlined-social-symbol" transform="translate(223.625 712)">
      <g id="Group_1" data-name="Group 1">
        <path id="Path_1" data-name="Path 1" class="cls-2" d="M50,25A25,25,0,1,0,25,50,25,25,0,0,0,50,25ZM2.273,25A22.727,22.727,0,1,1,25,47.727,22.727,22.727,0,0,1,2.273,25Z"/>
        <path id="Path_2" data-name="Path 2" class="cls-2" d="M231.5,158.676v-14.43h4.761l.752-4.782H231.5v-2.4c0-1.248.409-2.439,2.2-2.439h3.58v-4.773H232.2c-4.273,0-5.439,2.814-5.439,6.714v2.893h-2.932v4.784h2.932v14.43Z" transform="translate(-205.539 -119.247)"/>
      </g>
    </g>
    <g id="twitter-circular-button" transform="translate(289.25 712)">
      <g id="Group_2" data-name="Group 2">
        <path id="Path_6" data-name="Path 6" class="cls-2" d="M165.439,171.327c0-.252,0-.5-.016-.75a11.356,11.356,0,0,0,2.757-2.964,10.584,10.584,0,0,1-3.173.868,5.67,5.67,0,0,0,2.43-3.173,10.609,10.609,0,0,1-3.507,1.352,5.5,5.5,0,0,0-4.032-1.9,5.581,5.581,0,0,0-5.523,5.757,6.141,6.141,0,0,0,.143,1.334,15.553,15.553,0,0,1-11.386-6.291,6.2,6.2,0,0,0,1.709,7.891,5.286,5.286,0,0,1-2.5-.766v.075a5.867,5.867,0,0,0,4.432,5.814,5.232,5.232,0,0,1-1.455.2,5.047,5.047,0,0,1-1.039-.114,5.614,5.614,0,0,0,5.159,4.111,10.66,10.66,0,0,1-6.859,2.5,10.523,10.523,0,0,1-1.318-.084,14.9,14.9,0,0,0,8.468,2.654C159.884,187.839,165.439,179,165.439,171.327Z" transform="translate(-129.718 -151.298)"/>
        <path id="Path_7" data-name="Path 7" class="cls-2" d="M50,25A25,25,0,1,0,25,50,25,25,0,0,0,50,25ZM2.273,25A22.727,22.727,0,1,1,25,47.727,22.727,22.727,0,0,1,2.273,25Z"/>
      </g>
    </g>
  </g>
</svg>
