<?xml version="1.0"?>
<svg xmlns="http://www.w3.org/2000/svg" height="512px" viewBox="0 0 496 496" width="512px"><path d="m120 208c48.519531 0 88-39.480469 88-88s-39.480469-88-88-88-88 39.480469-88 88 39.480469 88 88 88zm0-160c39.703125 0 72 32.296875 72 72s-32.296875 72-72 72-72-32.296875-72-72 32.296875-72 72-72zm0 0" fill="#FFDA44"/><path d="m152.945312 120-32.945312-65.886719-32.945312 65.886719 32.945312 65.886719zm-44 8h22.109376l-11.054688 22.113281zm22.109376-16h-22.109376l11.054688-22.113281zm0 0" fill="#FFDA44"/><path d="m440 80h-56v96h-157.945312c8.875-16.734375 13.945312-35.777344 13.945312-56 0-66.167969-53.832031-120-120-120s-120 53.832031-120 120c0 20.222656 5.070312 39.265625 13.945312 56h-13.945312v320h440c30.871094 0 56-25.128906 56-56v-304c0-30.871094-25.128906-56-56-56zm-156.28125 285.167969 20.679688 5.167969c9.1875 2.304687 15.601562 10.519531 15.601562 19.992187v8.144531c0 4.421875-1.464844 8.816406-4.121094 12.359375-12.816406 17.078125-19.878906 38.273438-19.878906 59.640625v9.527344h-40v-13.054688c0-19.265624-15.679688-34.945312-34.945312-34.945312h-1.886719c-5.0625 0-9.824219-1.96875-13.398438-5.542969l-8.21875-8.21875c-6.605469-6.605469-15.382812-10.238281-24.71875-10.238281h-26.59375c-7.789062 0-14.695312-4.671875-17.582031-11.910156l-2.457031-6.128906c-5.34375-13.335938-18.070313-21.960938-32.4375-21.960938h-15.335938c-11.714843 0-22.578125 5.824219-29.082031 15.558594-3.519531 5.28125-9.414062 8.441406-15.769531 8.441406h-17.574219v-80h13.839844c13.433594 0 26.734375-4.441406 37.480468-12.496094 18.238282-13.6875 44.589844-15.039062 64.136719-3.304687l17.632813 10.578125c5.6875 3.414062 12.191406 5.222656 18.832031 5.222656h24.628906c17.386719 0 32.480469-12.367188 35.882813-29.40625l.367187-1.832031c1.375-6.851563 6.0625-12.496094 12.550781-15.089844l7.632813-3.054687c13.984375-5.59375 23.015625-18.929688 23.015625-33.976563v-36.640625h80v8.695312c0 6.898438-3.433594 13.3125-9.167969 17.144532l-22.527343 15.015625c-10.207032 6.800781-16.304688 18.183593-16.304688 30.449219v7.023437c0 7.847656-4.359375 14.910156-11.382812 18.425781l-16.394532 8.183594c-12.46875 6.238281-20.222656 18.78125-20.222656 32.734375 0 16.824219 11.398438 31.433594 27.71875 35.496094zm-163.71875-349.167969c57.34375 0 104 46.65625 104 104s-46.65625 104-104 104-104-46.65625-104-104 46.65625-104 104-104zm0 224c39.144531 0 73.855469-18.921875 95.777344-48h40.222656v36.640625c0 8.472656-5.089844 15.976563-12.953125 19.128906l-7.632813 3.054688c-11.519531 4.601562-19.855468 14.617187-22.292968 26.792969l-.367188 1.832031c-1.921875 9.589843-10.417968 16.550781-20.203125 16.550781h-24.628906c-3.738281 0-7.402344-1.015625-10.59375-2.9375l-17.640625-10.574219c-24.960938-14.984375-58.65625-13.265625-81.960938 4.222657-7.992187 5.992187-17.894531 9.289062-27.886718 9.289062h-13.839844v-104h8.222656c21.921875 29.078125 56.632813 48 95.777344 48zm-104 168h17.574219c11.714843 0 22.578125-5.824219 29.082031-15.558594 3.519531-5.28125 9.414062-8.441406 15.769531-8.441406h15.335938c7.789062 0 14.695312 4.671875 17.582031 11.910156l2.457031 6.128906c5.34375 13.335938 18.070313 21.960938 32.4375 21.960938h26.59375c5.0625 0 9.824219 1.96875 13.398438 5.542969l8.21875 8.21875c6.605469 6.605469 15.382812 10.238281 24.71875 10.238281h1.886719c10.449218 0 18.945312 8.496094 18.945312 18.945312v13.054688h-224zm424 72h-128v-9.527344c0-17.929687 5.921875-35.703125 16.6875-50.046875 4.710938-6.296875 7.3125-14.097656 7.3125-21.953125v-8.144531c0-16.832031-11.398438-31.433594-27.71875-35.503906l-20.679688-5.167969c-9.1875-2.296875-15.601562-10.511719-15.601562-19.984375 0-7.847656 4.359375-14.910156 11.382812-18.425781l16.394532-8.183594c12.480468-6.238281 20.222656-18.78125 20.222656-32.734375v-7.023437c0-6.898438 3.433594-13.3125 9.167969-17.144532l22.527343-15.015625c10.207032-6.800781 16.304688-18.183593 16.304688-30.449219v-8.695312h16v208h56c22.054688 0 40 17.945312 40 40s-17.945312 40-40 40zm40-79.160156c-10.167969-10.382813-24.34375-16.839844-40-16.839844h-40v-288h40c22.054688 0 40 17.945312 40 40zm0 0" fill="#FFDA44"/><path d="m352 256h16v16h-16zm0 0" fill="#FFDA44"/><path d="m320 320h16v16h-16zm0 0" fill="#FFDA44"/><path d="m368 448h16v16h-16zm0 0" fill="#FFDA44"/><path d="m416 416h16v16h-16zm0 0" fill="#FFDA44"/><path d="m32 448h16v16h-16zm0 0" fill="#FFDA44"/><path d="m80 408h16v16h-16zm0 0" fill="#FFDA44"/><path d="m144 440h16v16h-16zm0 0" fill="#FFDA44"/><path d="m176 248h16v16h-16zm0 0" fill="#FFDA44"/><path d="m32 248h16v16h-16zm0 0" fill="#FFDA44"/></svg>
