<svg height="496pt" viewBox="0 0 496 496" width="496pt" xmlns="http://www.w3.org/2000/svg"><path d="m496 48v-8c0-22.054688-17.945312-40-40-40s-40 17.945312-40 40v8h16v16h-16v16h-35.3125l-12.6875 12.6875-12.6875-12.6875h-112.257812l-11.054688 22.113281-11.054688-22.113281h-64.257812l-12.6875 12.6875-12.6875-12.6875h-51.3125v-16h-16v-16h16v-8c0-22.054688-17.945312-40-40-40s-40 17.945312-40 40v8h16v16h-16v368h16v16h-16v8c0 22.054688 17.945312 40 40 40s40-17.945312 40-40v-8h-16v-16h16v-16h35.3125l12.6875-12.6875 12.6875 12.6875h152.257812l11.054688-22.113281 11.054688 22.113281h24.257812l12.6875-12.6875 12.6875 12.6875h51.3125v16h16v16h-16v8c0 22.054688 17.945312 40 40 40s40-17.945312 40-40v-8h-16v-16h16v-368h-16v-16zm-40-32c10.433594 0 19.328125 6.6875 22.632812 16h-45.257812c3.296875-9.3125 12.191406-16 22.625-16zm-416 0c10.433594 0 19.328125 6.6875 22.632812 16h-45.265624c3.304687-9.3125 12.199218-16 22.632812-16zm-8 32h16v16h-16zm8 432c-10.433594 0-19.328125-6.6875-22.632812-16h45.257812c-3.296875 9.3125-12.191406 16-22.625 16zm8-32h-16v-16h16zm16-32h-48v-336h48zm307.3125-16-19.3125-19.3125-19.3125 19.3125h-7.742188l-20.945312-41.886719-20.945312 41.886719h-135.742188l-19.3125-19.3125-19.3125 19.3125h-28.6875v-304h44.6875l19.3125 19.3125 19.3125-19.3125h47.742188l20.945312 41.886719 20.945312-41.886719h95.742188l19.3125 19.3125 19.3125-19.3125h28.6875v304zm84.6875 80c-10.433594 0-19.328125-6.6875-22.632812-16h45.257812c-3.296875 9.3125-12.191406 16-22.625 16zm8-32h-16v-16h16zm16-32h-48v-336h48zm-16-352h-16v-16h16zm0 0"/><path d="m96 160h304v16h-304zm0 0"/><path d="m96 192h304v16h-304zm0 0"/><path d="m384 320h16v16h-16zm0 0"/><path d="m96 320h272v16h-272zm0 0"/><path d="m128 224h104v16h-104zm0 0"/><path d="m96 224h16v16h-16zm0 0"/><path d="m96 256h136v16h-136zm0 0"/><path d="m96 288h136v16h-136zm0 0"/><path d="m264 224h136v16h-136zm0 0"/><path d="m264 256h136v16h-136zm0 0"/><path d="m264 288h136v16h-136zm0 0"/></svg>