<?xml version="1.0" encoding="iso-8859-1"?>
<!-- Generator: Adobe Illustrator 19.0.0, SVG Export Plug-In . SVG Version: 6.00 Build 0)  -->
<svg version="1.1" id="Capa_1" xmlns="http://www.w3.org/2000/svg" xmlns:xlink="http://www.w3.org/1999/xlink" x="0px" y="0px"
	 viewBox="0 0 512.001 512.001" style="enable-background:new 0 0 512.001 512.001;" xml:space="preserve">
<path style="fill:#C48745;" d="M459.149,441.379V39.918C459.149,17.867,441.282,0,419.24,0H132.529h-26.483H66.322h-4.414
	C40.06,0,17.77,16.825,17.77,44.138c0,2.348,0.185,4.67,0.538,6.921c1.757,11.264,7.706,20.921,15.634,25.521
	c3.169,1.836,6.647,2.869,10.311,2.869c1.571,0,7.194,0,8.828,0h52.966v380.778c0,28.593,23.181,51.774,51.774,51.774h1.192h300.138
	c19.377,0,35.081-15.81,35.081-35.31C494.23,457.19,478.526,441.379,459.149,441.379z"/>
<path style="fill:#F7B563;" d="M181.884,474.333c0-13.321-6.118-25.194-15.669-32.953H459.15V39.918
	C459.149,17.867,441.282,0,419.231,0H132.529h-26.483H66.322h-4.414C40.06,0,17.77,16.825,17.77,44.138
	c0,18.82,11.847,35.31,26.483,35.31c1.571,0,7.194,0,8.828,0h52.966v380.778c0,28.593,23.181,51.774,51.774,51.774h1.192
	C172.579,504.964,181.884,490.761,181.884,474.333z"/>
<g>
	<path style="fill:#C48745;" d="M166.215,441.379c9.551,7.768,15.669,19.641,15.669,32.953c0,16.419-9.295,30.632-22.872,37.667
		H459.15c19.377,0,35.081-15.81,35.081-35.31l0,0c0-19.5-15.704-35.31-35.081-35.31H166.215z"/>
	<path style="fill:#C48745;" d="M70.735,45.4c0,18.82-8.828,34.048-26.483,34.048c-14.636,0-26.483-16.49-26.483-35.31
		C17.77,16.825,40.06,0,61.908,0s44.138,22.343,44.138,49.655v29.793"/>
</g>
<g>
</g>
<g>
</g>
<g>
</g>
<g>
</g>
<g>
</g>
<g>
</g>
<g>
</g>
<g>
</g>
<g>
</g>
<g>
</g>
<g>
</g>
<g>
</g>
<g>
</g>
<g>
</g>
<g>
</g>
</svg>
