<svg height="496pt" viewBox="0 -16 496 496" width="496pt" xmlns="http://www.w3.org/2000/svg"><path d="m470.425781 441.671875c-4.761719 3.671875-8.1875 6.328125-15.800781 6.328125-7.617188 0-11.050781-2.65625-15.808594-6.328125-5.570312-4.3125-12.503906-9.671875-25.585937-9.671875-13.078125 0-20.007813 5.367188-25.574219 9.671875-4.746094 3.671875-8.167969 6.328125-15.777344 6.328125-7.589844 0-11.023437-2.65625-15.765625-6.328125-1.265625-.976563-2.617187-2.007813-4.082031-3.023437l10.929688-32.792969-106.953126-63.765625v25.917968h-16v-25.917968l-106.953124 63.765625 10.882812 32.65625c-1.546875 1.0625-2.960938 2.144531-4.289062 3.175781-4.746094 3.664062-8.167969 6.320312-15.761719 6.320312-7.582031 0-11-2.648437-15.742188-6.320312-5.558593-4.3125-12.488281-9.679688-25.542969-9.679688-13.074218 0-20 5.367188-25.5625 9.679688-4.742187 3.664062-8.167968 6.320312-15.757812 6.320312-7.585938 0-11.007812-2.648437-15.746094-6.320312-5.558594-4.3125-12.488281-9.679688-25.535156-9.679688v16c7.585938 0 11.007812 2.648438 15.742188 6.320313 5.5625 4.3125 12.488281 9.679687 25.539062 9.679687 13.0625 0 19.992188-5.367187 25.550781-9.671874 4.742188-3.671876 8.167969-6.328126 15.769531-6.328126 7.582032 0 11.007813 2.65625 15.75 6.328126 5.558594 4.304687 12.488282 9.671874 25.535157 9.671874 13.066406 0 19.992187-5.367187 25.554687-9.671874 4.742188-3.671876 8.167969-6.328126 15.765625-6.328126 7.601563 0 11.023438 2.65625 15.769531 6.328126 5.566407 4.304687 12.496094 9.671874 25.558594 9.671874 13.066406 0 19.992188-5.367187 25.5625-9.671874 4.742188-3.671876 8.167969-6.328126 15.773438-6.328126 7.59375 0 11.023437 2.65625 15.769531 6.328126 5.566406 4.304687 12.496094 9.671874 25.558594 9.671874 13.066406 0 20-5.367187 25.570312-9.671874 4.742188-3.671876 8.167969-6.328126 15.773438-6.328126 7.59375 0 11.023437 2.65625 15.769531 6.328126 5.566406 4.304687 12.496094 9.671874 25.558594 9.671874 13.066406 0 20-5.359374 25.570312-9.671874 4.742188-3.671876 8.167969-6.328126 15.78125-6.328126 7.617188 0 11.050782 2.65625 15.808594 6.328126 5.570312 4.3125 12.503906 9.671874 25.585938 9.671874 13.078124 0 20.007812-5.359374 25.574218-9.671874 4.761719-3.671876 8.183594-6.328126 15.808594-6.328126v-16c-13.070312-.007812-20.007812 5.351563-25.574219 9.664063zm-230.503906-8.886719.085937-48.800781 16 .03125-.085937 48.777344c-2.410156-.488281-5.050781-.792969-8.042969-.792969-2.957031 0-5.566406.304688-7.957031.785156zm0 0"/><path d="m121.648438 371.609375 6.230468 18.695313 120.128906-71.617188 120.136719 71.625 6.230469-18.703125-118.367188-69.617187v-21.753907c33.144532 1.152344 61.398438 8.992188 74.761719 13.410157l19.984375-66.625c-11.960937-8.632813-48.648437-32.222657-94.746094-34.757813v-13.601563c34.902344 1.558594 63.191407 12.648438 63.496094 12.777344l8.832032 3.511719 16.59375-78.433594-4.289063-3.039062c-1.402344-.992188-33.273437-23.105469-84.632813-25.265625v-24.214844h64v-64h-80v88.183594c-51.03125 1.824218-82.726562 20.433594-84.121093 21.265625l-4.832031 2.894531 16.53125 82.65625 8.925781-3.566406c.304687-.121094 28.472656-11.226563 63.496093-12.777344v13.601562c-46.097656 2.535157-82.777343 26.125-94.742187 34.757813l19.980469 66.625c13.363281-4.417969 41.617187-12.257813 74.761718-13.410156v21.753906zm0 0"/></svg>