<?xml version="1.0" encoding="iso-8859-1"?>
<!-- Generator: Adobe Illustrator 22.1.0, SVG Export Plug-In . SVG Version: 6.00 Build 0)  -->
<svg xmlns="http://www.w3.org/2000/svg" xmlns:xlink="http://www.w3.org/1999/xlink" version="1.1" id="Layer_1_1_" x="0px" y="0px" viewBox="0 0 64 64" style="enable-background:new 0 0 64 64;" xml:space="preserve" width="512" height="512">
<g>
	<g>
		
			<rect x="25" y="13.89" transform="matrix(0.9762 -0.2169 0.2169 0.9762 -3.3941 6.0807)" style="fill:#F0BC5E;" width="2.001" height="9.22"/>
	</g>
	<g>
		
			<rect x="28.5" y="12.972" transform="matrix(0.9939 -0.1104 0.1104 0.9939 -1.7521 3.3648)" style="fill:#F0BC5E;" width="2" height="9.055"/>
	</g>
	<g>
		
			<rect x="33.39" y="17.5" transform="matrix(0.2167 -0.9762 0.9762 0.2167 11.7042 51.5875)" style="fill:#F0BC5E;" width="9.22" height="2.001"/>
	</g>
	<g>
		
			<rect x="29.972" y="16.5" transform="matrix(0.1103 -0.9939 0.9939 0.1103 13.3006 49.8587)" style="fill:#F0BC5E;" width="9.055" height="2"/>
	</g>
	<g>
		<polygon style="fill:#F0BC5E;" points="17.31,49 18.993,52.948 19,52.944 32,44 45,52.944 45.007,52.948 46.69,49 32,39   "/>
	</g>
	<g>
		<path style="fill:#F0BC5E;" d="M57.827,62c-2.587,0-2.587-2-5.173-2c-2.585,0-2.585,2-5.17,2c-2.583,0-2.583-2-5.165-2    c-2.584,0-2.584,2-5.168,2c-2.583,0-2.583-2-5.167-2c-2.583,0-2.583,2-5.167,2c-2.583,0-2.583-2-5.167-2c-2.582,0-2.582,2-5.164,2    c-2.581,0-2.581-2-5.162-2c-2.582,0-2.582,2-5.165,2C3.58,62,3.58,60,1,60v3h62v-3C60.413,60,60.413,62,57.827,62z"/>
	</g>
	<g>
		<rect x="31" y="43" width="2" height="6"/>
		<path d="M59.802,60.209C59.208,60.668,58.779,61,57.827,61c-0.952,0-1.381-0.332-1.975-0.791C55.155,59.67,54.289,59,52.653,59    c-1.634,0-2.5,0.67-3.196,1.209C48.863,60.668,48.435,61,47.484,61c-0.949,0-1.377-0.332-1.97-0.791    c-0.512-0.397-1.119-0.863-2.054-1.082l4.473-10.491l-12.335-8.397c4.022,0.511,6.995,1.675,7.032,1.69l1.015,0.404l3.503-11.678    l-0.507-0.423c-0.246-0.205-5.887-4.816-13.64-5.195v-1.705c4.363,0.195,7.899,1.582,7.937,1.597l1.104,0.439l2.074-9.804    l-0.536-0.38c-0.175-0.124-4.16-2.888-10.579-3.157V9h8V1H31v11.023c-6.378,0.228-10.341,2.554-10.515,2.658l-0.604,0.362    l2.066,10.332l1.116-0.447c0.038-0.015,3.559-1.402,7.936-1.596v1.705c-7.753,0.379-13.394,4.99-13.64,5.195l-0.507,0.423    l3.504,11.68l1.015-0.406c0.037-0.015,3.003-1.18,7.033-1.691l-12.337,8.398l4.47,10.484c-0.951,0.216-1.564,0.689-2.081,1.09    C17.864,60.668,17.436,61,16.487,61c-0.948,0-1.376-0.332-1.969-0.791C13.823,59.671,12.958,59,11.325,59s-2.499,0.67-3.194,1.209    C7.538,60.668,7.109,61,6.16,61c-0.948,0-1.375-0.332-1.967-0.791C3.498,59.671,2.632,59,1,59v2c0.948,0,1.375,0.332,1.967,0.791    C3.663,62.329,4.528,63,6.16,63c1.633,0,2.499-0.67,3.195-1.209C9.948,61.332,10.375,61,11.325,61    c0.948,0,1.376,0.332,1.969,0.791C13.989,62.329,14.854,63,16.487,63s2.499-0.67,3.194-1.209C20.274,61.332,20.702,61,21.651,61    c0.95,0,1.378,0.332,1.971,0.791C24.318,62.33,25.184,63,26.817,63c1.634,0,2.5-0.67,3.196-1.209    C30.606,61.332,31.034,61,31.984,61s1.378,0.332,1.971,0.791C34.651,62.33,35.517,63,37.151,63s2.5-0.67,3.196-1.209    C40.94,61.332,41.369,61,42.319,61c0.949,0,1.377,0.332,1.97,0.791C44.985,62.33,45.851,63,47.484,63    c1.634,0,2.501-0.67,3.197-1.209C51.274,61.332,51.703,61,52.653,61c0.952,0,1.381,0.332,1.975,0.791    C55.325,62.33,56.192,63,57.827,63c1.635,0,2.502-0.67,3.199-1.209C61.619,61.332,62.048,61,63,61v-2    C61.365,59,60.499,59.67,59.802,60.209z M33,3h6v4h-6V3z M22.127,16.078C23.486,15.426,27.024,14,32,14    c4.998,0,8.57,1.734,9.876,2.481l-1.312,6.2C38.935,22.161,35.7,21.308,32,21.308c-3.69,0-6.919,0.849-8.552,1.37L22.127,16.078z     M19.157,31.377C20.738,30.236,25.771,27,32,27s11.262,3.236,12.843,4.377l-2.498,8.328C40.541,39.108,36.573,38,32,38    s-8.541,1.108-10.345,1.705L19.157,31.377z M39.123,60.209C38.53,60.668,38.101,61,37.151,61c-0.95,0-1.378-0.332-1.971-0.791    c-0.537-0.416-1.18-0.907-2.194-1.111L33,51.002l-2-0.004l-0.015,8.1c-1.016,0.204-1.659,0.695-2.197,1.111    C28.196,60.668,27.767,61,26.817,61s-1.378-0.332-1.971-0.791c-0.528-0.409-1.156-0.892-2.14-1.102l-4.154-9.743L32,40.21    l13.448,9.155l-4.152,9.738C40.293,59.309,39.656,59.796,39.123,60.209z"/>
	</g>
</g>
</svg>
