<?xml version="1.0" encoding="iso-8859-1"?>
<!-- Generator: Adobe Illustrator 19.1.0, SVG Export Plug-In . SVG Version: 6.00 Build 0)  -->
<svg version="1.1" id="Capa_1" xmlns="http://www.w3.org/2000/svg" xmlns:xlink="http://www.w3.org/1999/xlink" x="0px" y="0px"
	 viewBox="0 0 194.665 194.665" style="enable-background:new 0 0 194.665 194.665;" xml:space="preserve">
<g>
	<path d="M161.638,194.665c-7.983,0-14.479-8.252-14.479-18.396c0-3.861,0.928-7.532,2.69-10.66l-27.688-27.691
		c-0.312-0.312-0.312-0.818,0-1.131s0.818-0.312,1.131,0l28.125,28.128c0.261,0.261,0.31,0.665,0.118,0.98
		c-1.816,2.992-2.776,6.579-2.776,10.374c0,9.261,5.777,16.796,12.879,16.796c7.099,0,12.879-7.535,12.886-16.797
		c0-0.203-0.011-0.404-0.021-0.605l-0.018-0.352c-0.008-0.223,0.076-0.438,0.234-0.596c0.157-0.158,0.37-0.239,0.597-0.234
		l0.309,0.015c0.213,0.011,0.43,0.021,0.647,0.021c9.26-0.007,16.794-5.783,16.794-12.876c0-7.106-7.534-12.889-16.794-12.889
		c-3.984,0-7.856,1.101-10.902,3.1c-0.314,0.206-0.735,0.166-1.004-0.104l-21.926-21.923c-0.312-0.312-0.312-0.818,0-1.131
		s0.818-0.312,1.131,0l21.475,21.471c3.21-1.946,7.17-3.013,11.227-3.013c10.143,0,18.394,6.499,18.394,14.488
		c0,7.975-8.251,14.469-18.393,14.476c-0.051,0-0.101,0-0.15-0.001c0.001,0.051,0.001,0.102,0.001,0.153
		C176.116,186.413,169.618,194.665,161.638,194.665z"/>
	<path d="M42.925,58.351c-0.205,0-0.409-0.078-0.565-0.234L29.056,44.815c-3.137,1.767-6.809,2.697-10.663,2.697
		C8.25,47.503,0,41.003,0,33.024c0-7.985,8.251-14.482,18.393-14.482c0.051,0,0.101,0,0.15,0.002
		c-0.001-0.052-0.001-0.103-0.001-0.154C18.548,8.249,25.046,0,33.026,0c7.984,0,14.479,8.249,14.479,18.39
		c0,4.063-1.066,8.024-3.013,11.231l9.92,9.91c0.312,0.312,0.312,0.819,0.001,1.132c-0.312,0.312-0.819,0.312-1.132,0.001
		L42.909,30.301c-0.269-0.269-0.312-0.688-0.103-1.006c1.998-3.04,3.1-6.913,3.1-10.905c0-9.258-5.778-16.79-12.88-16.79
		c-7.099,0-12.879,7.532-12.885,16.79c0,0.212,0.011,0.418,0.021,0.624l0.017,0.34c0.008,0.223-0.076,0.438-0.234,0.596
		c-0.157,0.157-0.385,0.237-0.596,0.234l-0.375-0.02c-0.193-0.011-0.387-0.022-0.582-0.022c-9.26,0-16.793,5.779-16.793,12.883
		c0,7.098,7.534,12.879,16.794,12.889c3.786,0,7.375-0.963,10.376-2.783c0.317-0.191,0.721-0.142,0.98,0.118l13.74,13.737
		c0.312,0.312,0.312,0.818,0,1.131C43.334,58.272,43.13,58.351,42.925,58.351z"/>
	<path d="M33.035,194.659c-0.003,0-0.006,0-0.01,0c-7.982,0-14.478-8.254-14.478-18.399c0-0.048,0-0.096,0.001-0.144
		c-0.052,0.001-0.104,0.001-0.156,0.001C8.251,176.11,0,169.613,0,161.635c0-7.985,8.251-14.481,18.393-14.481
		c4.058,0,8.018,1.066,11.228,3.013l21.598-21.594c0.312-0.312,0.818-0.312,1.131,0s0.312,0.818,0,1.131L30.3,151.749
		c-0.268,0.271-0.688,0.311-1.004,0.104c-3.046-1.999-6.918-3.1-10.903-3.1c-9.26,0-16.793,5.779-16.793,12.882
		c0,7.097,7.533,12.876,16.794,12.883c0.214,0,0.43-0.011,0.645-0.021l0.314-0.015c0.222-0.004,0.439,0.076,0.597,0.234
		c0.158,0.157,0.243,0.374,0.234,0.597l-0.015,0.309c-0.011,0.213-0.021,0.429-0.021,0.639c0,9.264,5.777,16.8,12.879,16.8
		c0.003,0,0.005,0,0.008,0c3.401,0,6.609-1.72,9.036-4.843c2.474-3.184,3.836-7.431,3.836-11.957c0-3.785-0.959-7.369-2.774-10.365
		c-0.19-0.314-0.142-0.72,0.119-0.979l28.235-28.235c0.312-0.312,0.818-0.312,1.131,0s0.312,0.818,0,1.131l-27.799,27.8
		c1.76,3.13,2.688,6.798,2.688,10.649c0,4.881-1.481,9.476-4.172,12.938C40.598,192.721,36.94,194.659,33.035,194.659z"/>
	<path d="M152.705,57.392c-0.205,0-0.409-0.078-0.565-0.234c-0.312-0.312-0.312-0.819,0-1.131l12.777-12.771
		c0.261-0.262,0.666-0.309,0.979-0.119c2.992,1.811,6.58,2.768,10.375,2.768c9.26,0,16.794-5.777,16.794-12.879
		c0-7.104-7.534-12.883-16.794-12.883c-0.213,0-0.423,0.011-0.635,0.021l-0.322,0.015c-0.225-0.014-0.439-0.077-0.596-0.234
		c-0.158-0.157-0.242-0.374-0.234-0.597l0.017-0.341c0.011-0.204,0.022-0.41,0.022-0.616c-0.007-9.258-5.784-16.79-12.88-16.79
		c-7.104,0-12.885,7.532-12.885,16.79c0,3.989,1.101,7.86,3.099,10.899c0.209,0.317,0.166,0.737-0.103,1.005l-9.774,9.771
		c-0.312,0.312-0.818,0.312-1.131,0s-0.312-0.818,0-1.131l9.322-9.319c-1.947-3.206-3.013-7.164-3.013-11.226
		c0-10.141,6.497-18.39,14.484-18.39c7.977,0,14.473,8.249,14.479,18.389c0,0.052,0,0.104-0.001,0.154
		c0.05-0.001,0.1-0.001,0.149-0.001c10.143,0,18.394,6.497,18.394,14.482c0,7.983-8.251,14.479-18.394,14.479
		c-3.861,0-7.531-0.925-10.659-2.681l-12.342,12.335C153.114,57.313,152.91,57.392,152.705,57.392z"/>
	<g>
		<path d="M96.899,151.805c-3.133-0.071-6.966-0.496-10.84-1.195c-0.479-0.098-2.113-0.422-2.113-0.422
			c-9.787-2.037-11.7-3.838-11.7-6.259v-5.666c-4.097-2.479-15.343-6.431-18.158-7.36c-2.256-0.31-4.241-1.667-5.458-3.731
			c-2.288-3.882-1.843-10.361,1.322-19.261c-7.235-9.417-11.058-20.539-11.058-32.191c0-30.502,26.54-55.317,59.162-55.317
			c32.625,0,59.167,24.815,59.167,55.317c0,12.119-4.11,23.604-11.892,33.243c2.838,8.419,3.149,14.56,0.926,18.257
			c-1.241,2.085-3.16,3.35-5.702,3.757c-0.083,0.03-0.168,0.059-0.245,0.084c-7.707,2.674-13.607,5.037-16.706,6.688v6.181
			c0,2.639-2.441,4.099-9.675,5.785c-0.005,0.001-1.779,0.402-2.268,0.492c-4.409,0.914-9.07,1.496-12.769,1.592L96.899,151.805z
			 M84.265,148.619c0,0,1.637,0.324,2.099,0.419c3.775,0.682,7.521,1.098,10.525,1.167l1.981-0.007
			c3.59-0.094,8.146-0.663,12.486-1.562c0.491-0.09,2.213-0.481,2.215-0.481c7.781-1.813,8.434-3.132,8.434-4.226v-6.655
			c0-0.29,0.156-0.557,0.409-0.698c3.093-1.728,9.106-4.16,17.39-7.033c0.097-0.031,0.188-0.062,0.274-0.095
			c0.051-0.02,0.104-0.032,0.156-0.041c2.086-0.318,3.65-1.33,4.65-3.009c2.008-3.338,1.6-9.169-1.21-17.337
			c-0.09-0.262-0.038-0.553,0.139-0.768c7.727-9.42,11.811-20.685,11.811-32.574c0-29.62-25.825-53.718-57.567-53.718
			c-31.74,0-57.562,24.098-57.562,53.718c0,11.438,3.801,22.35,10.99,31.557c0.169,0.217,0.215,0.506,0.121,0.765
			c-3.129,8.644-3.666,14.807-1.597,18.318c0.977,1.659,2.565,2.74,4.358,2.967c0.051,0.007,0.101,0.018,0.149,0.034
			c2.998,0.985,15.003,5.194,18.968,7.792c0.226,0.147,0.361,0.399,0.361,0.669v6.108C73.846,144.81,73.846,146.45,84.265,148.619
			L84.265,148.619z"/>
		<path d="M97.811,174.846c-16.614,0-21.689-13.8-21.738-13.939c-0.147-0.416,0.07-0.872,0.486-1.02
			c0.414-0.152,0.872,0.069,1.021,0.485c0.188,0.525,4.772,12.874,20.23,12.874c15.489,0,20.118-12.713,20.163-12.842
			c0.146-0.417,0.601-0.638,1.02-0.49c0.417,0.146,0.637,0.603,0.49,1.02C119.435,161.072,114.422,174.846,97.811,174.846z"/>
		<path d="M75.357,105.678c-9.107,0-14.544-3.56-14.544-9.521c0-3.898,6.732-11.84,14.544-11.84c7.61,0,14.541,5.644,14.541,11.84
			C89.898,102.118,84.463,105.678,75.357,105.678z M75.357,85.916c-7.064,0-12.944,7.436-12.944,10.24
			c0,7.351,9.908,7.922,12.944,7.922s12.941-0.571,12.941-7.922C88.299,91.322,82.765,85.916,75.357,85.916z"/>
		<path d="M121.001,105.678c-9.105,0-14.541-3.56-14.541-9.521c0-6.196,6.931-11.84,14.541-11.84c7.812,0,14.546,7.941,14.546,11.84
			C135.547,102.118,130.109,105.678,121.001,105.678z M121.001,85.916c-7.407,0-12.941,5.406-12.941,10.24
			c0,7.351,9.905,7.922,12.941,7.922c3.037,0,12.946-0.571,12.946-7.922C133.947,93.352,128.066,85.916,121.001,85.916z"/>
		<path d="M107.201,120.396c-0.205,0-0.409-0.078-0.565-0.234c-3.025-3.024-6.604-4.003-10.625-2.908
			c-3.057,0.831-5.218,2.577-5.239,2.595c-0.34,0.281-0.845,0.231-1.125-0.113c-0.28-0.342-0.229-0.846,0.113-1.125
			c0.096-0.079,9.771-7.812,18.007,0.421c0.312,0.312,0.312,0.818,0,1.131C107.61,120.318,107.406,120.396,107.201,120.396z"/>
	</g>
</g>
<g>
</g>
<g>
</g>
<g>
</g>
<g>
</g>
<g>
</g>
<g>
</g>
<g>
</g>
<g>
</g>
<g>
</g>
<g>
</g>
<g>
</g>
<g>
</g>
<g>
</g>
<g>
</g>
<g>
</g>
</svg>
