<svg height="496pt" viewBox="-80 0 496 496" width="496pt" xmlns="http://www.w3.org/2000/svg"><path d="m314.734375 274.871094-5.726563-3.824219c-1.207031-.808594-2.199218-1.832031-3.085937-2.941406l20.582031-56.609375c6.304688-17.304688 9.496094-35.425782 9.496094-53.855469 0-86.921875-70.71875-157.640625-157.640625-157.640625h-20.71875c-86.921875 0-157.640625 70.71875-157.640625 157.640625 0 18.429687 3.191406 36.550781 9.496094 53.863281l20.582031 56.609375c-.878906 1.109375-1.871094 2.132813-3.085937 2.941407l-5.726563 3.824218c-8.304687 5.527344-13.265625 14.800782-13.265625 24.785156 0 10.398438 5.535156 20.175782 14.464844 25.542969l25.535156 15.320313v63.304687c0 9.808594 3.585938 19.238281 10.113281 26.566407l46.359375 52.167968c7.574219 8.539063 18.472656 13.433594 29.894532 13.433594h67.265624c11.421876 0 22.320313-4.894531 29.886719-13.433594l46.367188-52.160156c6.527343-7.328125 10.113281-16.765625 10.113281-26.574219v-63.304687l25.542969-15.320313c8.921875-5.367187 14.457031-15.144531 14.457031-25.542969 0-9.984374-4.960938-19.257812-13.265625-24.792968zm-48.796875 144.914062-46.378906 52.167969c-4.535156 5.109375-11.070313 8.046875-17.925782 8.046875h-67.265624c-6.847657 0-13.390626-2.9375-17.933594-8.054688l-46.371094-52.167968c-3.902344-4.394532-6.0625-10.058594-6.0625-15.945313v-59.128906c18.167969 3.328125 32 19.207031 32 38.320313 0 7.921874 3.089844 15.367187 8.6875 20.96875l3.3125 3.3125c5.367188 5.367187 12.449219 8.351562 20 8.589843v24.105469h16v-24h16v24h16v-24h16v24h16v-24.097656c7.550781-.246094 14.632812-3.222656 20-8.589844l3.3125-3.3125c5.597656-5.601562 8.6875-13.046875 8.6875-20.96875 0-19.109375 13.832031-34.992188 32-38.320312v59.128906c0 5.878906-2.160156 11.542968-6.0625 15.945312zm39.367188-108.289062-27.640626 16.574218c-29.703124.730469-53.664062 25.074219-53.664062 54.960938 0 3.648438-1.425781 7.082031-4 9.65625l-3.3125 3.3125c-2.34375 2.34375-5.40625 3.671875-8.6875 3.902344v-31.902344h-16v32h-16v-32h-16v32h-16v-32h-16v31.902344c-3.28125-.230469-6.34375-1.558594-8.6875-3.902344l-3.3125-3.3125c-2.574219-2.574219-4-6.007812-4-9.65625 0-29.878906-23.960938-54.230469-53.664062-54.960938l-27.632813-16.574218c-4.136719-2.488282-6.703125-7.015625-6.703125-11.832032 0-4.625 2.296875-8.910156 6.144531-11.480468l5.726563-3.824219c5.410156-3.605469 9.351562-8.816406 11.480468-14.792969 5.871094 11.050782 17.417969 18.433594 30.417969 18.433594h4.78125c4.722657 0 9.304688-.945312 13.609375-2.800781l34.902344-14.953125c12.722656-5.445313 20.9375-17.917969 20.9375-31.75v-3.222656c0-2.816407-.34375-5.625-1.03125-8.378907l-2.175781-8.726562c-3.863281-15.40625-17.640625-26.167969-33.527344-26.167969-2.816406 0-5.625.34375-8.371094 1.023438l-40.734375 10.183593c-4.375 1.097657-8.320312 3.066407-11.808594 5.601563l1.601563-16.015625-15.921875-1.59375-4.511719 45.097656-11.007812-30.265625c-5.648438-15.542969-8.511719-31.832031-8.511719-48.390625 0-35.417969 13.160156-67.761719 34.726562-92.625l6.105469 36.617187 19.28125 8.261719-11.265625 22.53125 14.3125 7.160157 11.6875-23.371094 23.632813 10.128906 22.671875 37.785156 13.71875-8.234375-9.871094-16.453125 29.984375-11.992187-5.9375-14.855469-32.382813 12.949219-7.113281-11.863281-54.359375-23.296876-6.550781-39.277343c24.894531-21.792969 57.390625-35.105469 93-35.105469h20.71875c25.90625 0 50.121094 7.105469 71.03125 19.296875l-33.390625 33.390625v51.3125h16v-18.40625l28.375 15.765625-11.527344 23.066406 14.3125 7.160157 11.222656-22.441407 17.746094 9.855469 7.765625-13.984375-67.894531-37.71875v-7.984375l30.984375-30.984375c34.527344 25.855469 57.015625 66.953125 57.015625 113.3125 0 16.558594-2.863281 32.839844-8.519531 48.398437l-11.007813 30.265626-4.511718-45.105469-15.921876 1.59375 1.601563 16c-3.488281-2.519531-7.433594-4.488281-11.808594-5.585938l-40.71875-10.175781-.007812-.007812c-2.746094-.679688-5.5625-1.023438-8.371094-1.023438-15.878906 0-29.664063 10.761719-33.519531 26.167969l-2.183594 8.726562c-.6875 2.746094-1.03125 5.5625-1.03125 8.371094v3.222656c0 13.832031 8.214844 26.304688 20.945312 31.757813l34.878907 14.953125c4.320312 1.847656 8.902343 2.800781 13.625 2.800781h4.78125c13 0 24.546875-7.382812 30.417969-18.425781 2.128906 5.976562 6.070312 11.1875 11.480468 14.792969l5.726563 3.824218c3.847656 2.5625 6.144531 6.847656 6.144531 11.472656 0 4.816407-2.566406 9.34375-6.695312 11.832032zm-249.304688-74.761719c0-8.527344 5.785156-15.925781 14.046875-18.007813l40.722656-10.167968c9.832031-2.445313 20.0625 3.769531 22.503907 13.496094l2.167968 8.714843c.375 1.460938.558594 2.984375.558594 4.496094v3.222656c0 7.433594-4.414062 14.128907-11.238281 17.054688l-34.914063 14.953125c-2.3125 1.007812-4.769531 1.503906-7.304687 1.503906h-4.78125c-8.816407 0-16.464844-6.273438-18.1875-14.910156l-3.214844-16.089844c-.238281-1.183594-.359375-2.414062-.359375-4.265625zm224 .632813c0 1.21875-.121094 2.449218-.359375 3.640624l-3.214844 16.089844c-1.730469 8.628906-9.378906 14.902344-18.195312 14.902344h-4.78125c-2.527344 0-4.992188-.496094-7.3125-1.503906l-34.890625-14.953125c-6.832032-2.925781-11.246094-9.621094-11.246094-17.046875v-3.222656c0-1.511719.183594-3.035157.542969-4.496094l2.175781-8.714844c2.089844-8.277344 9.480469-14.0625 18.015625-14.0625 1.503906 0 3.027344.183594 4.496094.550781l40.714843 10.167969c8.269532 2.089844 14.054688 9.480469 14.054688 18.648438zm0 0"/><path d="m168 250.664062-25.609375 34.152344c-4.117187 5.503906-6.390625 12.320313-6.390625 19.183594 0 17.648438 14.351562 32 32 32s32-14.351562 32-32c0-6.863281-2.273438-13.679688-6.398438-19.191406zm0 69.335938c-8.824219 0-16-7.175781-16-16 0-3.441406 1.144531-6.839844 3.191406-9.601562l12.808594-17.0625 12.800781 17.054687c2.054688 2.769531 3.199219 6.167969 3.199219 9.609375 0 8.824219-7.175781 16-16 16zm0 0"/></svg>