<svg height="464pt" viewBox="0 0 464 464.008" width="464pt" xmlns="http://www.w3.org/2000/svg"><path d="m454.53125 224c-3.304688-9.304688-12.09375-16-22.527344-16h-6.703125c-2.578125 0-5.144531.414062-7.59375 1.230469l-3.695312 1.234375c-11 3.664062-22.519531 5.535156-34.121094 5.535156h-12.917969c-3-25.558594-13.089844-48.902344-28.242187-68.113281l9.152343-9.152344c8.203126-8.199219 17.671876-15.023437 28.042969-20.207031l3.476563-1.742188c2.304687-1.152344 4.417968-2.671875 6.242187-4.496094l4.734375-4.738281c7.378906-7.375 8.855469-18.328125 4.617188-27.246093l6.695312-6.695313-11.3125-11.3125-6.695312 6.695313c-8.910156-4.238282-19.863282-2.761719-27.246094 4.617187l-4.738281 4.734375c-1.824219 1.824219-3.34375 3.929688-4.496094 6.242188l-1.742187 3.476562c-5.183594 10.378906-12.007813 19.839844-20.207032 28.042969l-9.152344 9.152343c-19.210937-15.152343-42.554687-25.242187-68.113281-28.242187v-12.910156c0-11.601563 1.871094-23.121094 5.535157-34.121094l1.234374-3.695313c.832032-2.441406 1.246094-5.007812 1.246094-7.585937v-6.703125c0-10.433594-6.695312-19.222656-16-22.527344v-9.472656h-16v9.472656c-9.304687 3.304688-16 12.09375-16 22.527344v6.703125c0 2.578125.417969 5.144531 1.230469 7.59375l1.234375 3.695313c3.664062 11 5.535156 22.519531 5.535156 34.113281v12.917969c-25.558594 3-48.902344 13.089843-68.113281 28.242187l-9.152344-9.152344c-8.199219-8.203125-15.023437-17.671875-20.207031-28.042969l-1.742188-3.476562c-1.152343-2.304688-2.671874-4.417969-4.496093-6.242188l-4.738281-4.734374c-7.375-7.378907-18.328126-8.855469-27.246094-4.617188l-6.695313-6.695312-11.3125 11.3125 6.695313 6.695312c-4.238282 8.910156-2.761719 19.863281 4.617187 27.246094l4.734375 4.738281c1.824219 1.824219 3.929688 3.34375 6.242188 4.496094l3.476562 1.742187c10.378906 5.183594 19.839844 12.007813 28.042969 20.207032l9.152344 9.152343c-15.152344 19.210938-25.242188 42.554688-28.242188 68.113281h-12.917969c-11.601562 0-23.121093-1.871093-34.121093-5.535156l-3.695313-1.234375c-2.449218-.8125-5.007812-1.230469-7.59375-1.230469h-6.6875c-10.433594 0-19.222656 6.695313-22.527344 16h-9.47265575v16h9.47265575c3.304688 9.304688 12.09375 16 22.527344 16h6.703125c2.578125 0 5.144531-.414062 7.59375-1.230468l3.695313-1.234375c11-3.664063 22.519531-5.535157 34.121094-5.535157h12.917968c3 25.558594 13.089844 48.902344 28.242188 68.113282l-9.152344 9.152344c-8.199219 8.199218-17.671875 15.023437-28.039062 20.207031l-3.480469 1.742187c-2.304688 1.152344-4.417969 2.671875-6.242188 4.496094l-4.734375 4.738281c-7.375 7.375-8.855468 18.328125-4.617187 27.246094l-6.695313 6.695313 11.3125 11.3125 6.695313-6.695313c8.910156 4.242187 19.863281 2.761719 27.246093-4.617187l4.738282-4.734376c1.824218-1.824218 3.34375-3.929687 4.496094-6.238281l1.742187-3.480469c5.183594-10.378906 12.007813-19.839843 20.210937-28.042968l9.148438-9.148438c19.210938 15.148438 42.554688 25.238282 68.113281 28.238282v12.917968c0 11.601563-1.871093 23.121094-5.535156 34.121094l-1.230469 3.695312c-.832031 2.433594-1.25 4.992188-1.25 7.578126v6.703124c0 10.433594 6.695313 19.222657 16 22.527344v9.472656h16v-9.472656c9.304688-3.304687 16-12.09375 16-22.527344v-6.703124c0-2.578126-.414062-5.144532-1.230468-7.59375l-1.234376-3.695313c-3.664062-11-5.535156-22.519531-5.535156-34.121094v-12.910156c25.558594-3 48.902344-13.089844 68.113282-28.242187l9.152343 9.152343c8.199219 8.203125 15.023438 17.671875 20.207031 28.042969l1.742188 3.476562c1.152344 2.304688 2.671875 4.417969 4.496094 6.242188l4.738281 4.734375c7.375 7.378906 18.328125 8.855469 27.246094 4.617187l6.695312 6.695313 11.3125-11.3125-6.695312-6.695313c4.242187-8.910156 2.761719-19.863281-4.617188-27.246093l-4.734375-4.738281c-1.824218-1.824219-3.929687-3.34375-6.238281-4.496094l-3.480469-1.742188c-10.378906-5.183594-19.839844-12.007812-28.042968-20.207031l-9.152344-9.152344c15.152344-19.210937 25.242187-42.554687 28.242187-68.113281h12.917969c11.601562 0 23.121094 1.871094 34.121094 5.535156l3.695312 1.234375c2.449219.816407 5.007813 1.230469 7.59375 1.230469h6.6875c10.433594 0 19.222656-6.695312 22.527344-16h9.472656v-16zm-318.527344 16h-16v-16h16zm140.910156-64.222656-28.757812 28.757812c-2.527344-1.488281-5.25-2.640625-8.152344-3.398437v-40.664063c13.878906 1.535156 26.550782 7.023438 36.910156 15.304688zm11.3125 11.3125c8.28125 10.351562 13.769532 23.03125 15.304688 36.910156h-40.664062c-.75-2.902344-1.902344-5.632812-3.398438-8.152344zm-40.222656 44.910156c0 8.824219-7.175781 16-16 16-8.824218 0-16-7.175781-16-16s7.175782-16 16-16c8.824219 0 16 7.183594 16 16zm-24-112h16v16h-16zm0 40.472656v40.664063c-2.902344.75-5.632812 1.902343-8.152344 3.398437l-28.757812-28.757812c10.359375-8.28125 23.03125-13.769532 36.910156-15.304688zm-19.464844 55.375c-1.488281 2.527344-2.640624 5.25-3.398437 8.152344h-40.664063c1.535157-13.878906 7.023438-26.550781 15.304688-36.910156zm-46.070312-68.695312 11.3125 11.3125-11.3125 11.3125-11.3125-11.3125zm0 169.703125-11.3125-11.3125 11.3125-11.3125 11.3125 11.3125zm2.007812-76.855469h40.664063c.75 2.902344 1.902344 5.632812 3.398437 8.152344l-28.75 28.75c-8.289062-10.34375-13.777343-23.023438-15.3125-36.902344zm26.617188 48.222656 28.757812-28.757812c2.527344 1.488281 5.25 2.640625 8.152344 3.398437v40.664063c-13.878906-1.527344-26.550781-7.015625-36.910156-15.304688zm52.910156 55.777344h-16v-16h16zm0-40.464844v-40.664062c2.902344-.75 5.632813-1.902344 8.152344-3.398438l28.757812 28.757813c-10.359374 8.28125-23.03125 13.769531-36.910156 15.304687zm19.464844-55.375c1.488281-2.527344 2.640625-5.25 3.398438-8.152344h40.664062c-1.535156 13.878907-7.023438 26.550782-15.3125 36.914063zm46.070312 68.695313-11.3125-11.3125 11.3125-11.3125 11.3125 11.3125zm0-147.078125-11.3125-11.3125 11.3125-11.3125 11.3125 11.3125zm38.464844 70.222656h-16v-16h16zm0 0"/></svg>